<svg width="160" height="160" viewBox="0 0 160 160" fill="none" xmlns="http://www.w3.org/2000/svg">
<rect width="160" height="160" fill="black"/>
<circle cx="53" cy="71" r="19.5" fill="black" stroke="white"/>
<path d="M62 51.5C65.9495 51.5 69.5636 53.6336 72.207 57.1582C74.8504 60.6829 76.5 65.5751 76.5 71C76.5 76.4249 74.8504 81.3171 72.207 84.8418C69.5636 88.3664 65.9495 90.5 62 90.5C58.0505 90.5 54.4364 88.3664 51.793 84.8418C49.1496 81.3171 47.5 76.4249 47.5 71C47.5 65.5751 49.1496 60.6829 51.793 57.1582C54.4364 53.6336 58.0505 51.5 62 51.5Z" fill="black" stroke="white"/>
<path d="M71 51.5C71.9228 51.5 72.8528 51.9653 73.751 52.915C74.6502 53.8659 75.4825 55.2692 76.1924 57.0439C77.611 60.5907 78.5 65.5246 78.5 71C78.5 76.4754 77.611 81.4093 76.1924 84.9561C75.4825 86.7308 74.6502 88.1341 73.751 89.085C72.8528 90.0347 71.9228 90.5 71 90.5C70.0772 90.5 69.1472 90.0347 68.249 89.085C67.3498 88.1341 66.5175 86.7308 65.8076 84.9561C64.389 81.4093 63.5 76.4754 63.5 71C63.5 65.5246 64.389 60.5907 65.8076 57.0439C66.5175 55.2692 67.3498 53.8659 68.249 52.915C69.1472 51.9653 70.0772 51.5 71 51.5Z" fill="black" stroke="white"/>
<circle cx="20" cy="20" r="19.5" transform="matrix(-1 0 0 1 128 51)" fill="black" stroke="white"/>
<path d="M99 51.5C95.0505 51.5 91.4364 53.6336 88.793 57.1582C86.1496 60.6829 84.5 65.5751 84.5 71C84.5 76.4249 86.1496 81.3171 88.793 84.8418C91.4364 88.3664 95.0505 90.5 99 90.5C102.949 90.5 106.564 88.3664 109.207 84.8418C111.85 81.3171 113.5 76.4249 113.5 71C113.5 65.5751 111.85 60.6829 109.207 57.1582C106.564 53.6336 102.949 51.5 99 51.5Z" fill="black" stroke="white"/>
<path d="M90 51.5C89.0772 51.5 88.1472 51.9653 87.249 52.915C86.3498 53.8659 85.5175 55.2692 84.8076 57.0439C83.389 60.5907 82.5 65.5246 82.5 71C82.5 76.4754 83.389 81.4093 84.8076 84.9561C85.5175 86.7308 86.3498 88.1341 87.249 89.085C88.1472 90.0347 89.0772 90.5 90 90.5C90.9228 90.5 91.8528 90.0347 92.751 89.085C93.6502 88.1341 94.4825 86.7308 95.1924 84.9561C96.611 81.4093 97.5 76.4754 97.5 71C97.5 65.5246 96.611 60.5907 95.1924 57.0439C94.4825 55.2692 93.6502 53.8659 92.751 52.915C91.8528 51.9653 90.9228 51.5 90 51.5Z" fill="black" stroke="white"/>
<line x1="80.5" y1="91" x2="80.5" y2="51" stroke="white"/>
<path d="M43.296 113C43.1893 113 43.0987 112.931 43.024 112.792C42.9493 112.653 42.8853 112.531 42.832 112.424L40.272 107.432H37.904V112.712C37.904 112.808 37.872 112.883 37.808 112.936C37.7547 112.979 37.6907 113 37.616 113C37.5413 113 37.472 112.979 37.408 112.936C37.3547 112.883 37.328 112.808 37.328 112.712V101.576C37.328 101.501 37.3547 101.443 37.408 101.4C37.4613 101.347 37.5307 101.315 37.616 101.304H40.288C40.8747 101.304 41.4187 101.4 41.92 101.592C42.4213 101.773 42.8213 102.088 43.12 102.536C43.4293 102.973 43.584 103.581 43.584 104.36C43.584 105.043 43.4613 105.597 43.216 106.024C42.9813 106.451 42.6613 106.771 42.256 106.984C41.8507 107.197 41.3973 107.336 40.896 107.4L43.536 112.536C43.5573 112.568 43.568 112.6 43.568 112.632C43.5787 112.664 43.584 112.691 43.584 112.712C43.584 112.765 43.568 112.813 43.536 112.856C43.5147 112.899 43.4827 112.936 43.44 112.968C43.3973 112.989 43.3493 113 43.296 113ZM37.904 106.856H40.288C41.088 106.856 41.7387 106.664 42.24 106.28C42.752 105.885 43.008 105.245 43.008 104.36C43.008 103.475 42.752 102.84 42.24 102.456C41.7387 102.072 41.088 101.88 40.288 101.88H37.904V106.856ZM49.4846 113.096C48.866 113.096 48.338 112.925 47.9006 112.584C47.474 112.232 47.2606 111.699 47.2606 110.984C47.2606 110.419 47.4153 109.987 47.7246 109.688C48.0446 109.379 48.482 109.165 49.0366 109.048C49.602 108.931 50.2526 108.872 50.9886 108.872H51.8846V108.424C51.8846 108.019 51.8153 107.624 51.6766 107.24C51.538 106.856 51.314 106.541 51.0046 106.296C50.6953 106.04 50.2846 105.912 49.7726 105.912C49.442 105.912 49.1646 105.949 48.9406 106.024C48.7166 106.088 48.5353 106.157 48.3966 106.232C48.2686 106.307 48.1726 106.344 48.1086 106.344C48.0233 106.344 47.954 106.307 47.9006 106.232C47.8473 106.147 47.8206 106.077 47.8206 106.024C47.8206 105.917 47.9166 105.816 48.1086 105.72C48.3113 105.613 48.562 105.528 48.8606 105.464C49.17 105.389 49.4846 105.352 49.8046 105.352C50.466 105.352 50.9886 105.501 51.3726 105.8C51.7566 106.088 52.0286 106.467 52.1886 106.936C52.3593 107.395 52.4446 107.891 52.4446 108.424V112.712C52.4446 112.787 52.418 112.856 52.3646 112.92C52.322 112.973 52.258 113 52.1726 113C52.098 113 52.0286 112.973 51.9646 112.92C51.9113 112.856 51.8846 112.787 51.8846 112.712V111.88C51.618 112.189 51.282 112.472 50.8766 112.728C50.482 112.973 50.018 113.096 49.4846 113.096ZM49.4686 112.536C49.874 112.536 50.258 112.44 50.6206 112.248C50.994 112.045 51.298 111.805 51.5326 111.528C51.7673 111.251 51.8846 111 51.8846 110.776V109.432H51.0046C50.4606 109.432 49.9433 109.464 49.4526 109.528C48.9726 109.592 48.578 109.736 48.2686 109.96C47.97 110.173 47.8206 110.515 47.8206 110.984C47.8206 111.517 47.9806 111.912 48.3006 112.168C48.6206 112.413 49.01 112.536 49.4686 112.536ZM56.4929 116.792C56.4182 116.792 56.3542 116.765 56.3009 116.712C56.2475 116.659 56.2209 116.595 56.2209 116.52C56.2209 116.445 56.2369 116.376 56.2689 116.312C56.3115 116.259 56.3755 116.232 56.4609 116.232C56.7489 116.232 57.0049 116.125 57.2289 115.912C57.4635 115.709 57.6715 115.432 57.8529 115.08C58.0449 114.739 58.2155 114.365 58.3649 113.96C58.5142 113.565 58.6582 113.176 58.7969 112.792L56.2369 105.72C56.2155 105.677 56.2049 105.645 56.2049 105.624C56.2049 105.571 56.2155 105.528 56.2369 105.496C56.2689 105.453 56.3062 105.421 56.3489 105.4C56.4022 105.368 56.4555 105.352 56.5089 105.352C56.5622 105.352 56.6155 105.368 56.6689 105.4C56.7222 105.432 56.7542 105.475 56.7649 105.528L59.0849 111.928L61.3889 105.528C61.4102 105.475 61.4422 105.432 61.4849 105.4C61.5382 105.368 61.5915 105.352 61.6449 105.352C61.6982 105.352 61.7462 105.363 61.7889 105.384C61.8315 105.405 61.8635 105.437 61.8849 105.48C61.9169 105.512 61.9329 105.56 61.9329 105.624C61.9329 105.667 61.9275 105.699 61.9169 105.72L59.3569 112.792C59.2182 113.187 59.0582 113.613 58.8769 114.072C58.6955 114.541 58.4875 114.979 58.2529 115.384C58.0289 115.8 57.7675 116.136 57.4689 116.392C57.1809 116.659 56.8555 116.792 56.4929 116.792ZM65.6731 103.432C65.6091 103.432 65.5505 103.411 65.4971 103.368C65.4438 103.325 65.4171 103.267 65.4171 103.192C65.4171 103.149 65.4225 103.117 65.4331 103.096L65.7211 102.28C65.5931 102.248 65.4865 102.179 65.4011 102.072C65.3265 101.965 65.2891 101.848 65.2891 101.72C65.2891 101.56 65.3425 101.427 65.4491 101.32C65.5558 101.203 65.6945 101.144 65.8651 101.144C66.0145 101.144 66.1425 101.203 66.2491 101.32C66.3665 101.427 66.4251 101.56 66.4251 101.72C66.4251 101.784 66.4091 101.88 66.3771 102.008C66.3451 102.125 66.3025 102.259 66.2491 102.408C66.2065 102.547 66.1531 102.696 66.0891 102.856C66.0251 103.005 65.9611 103.144 65.8971 103.272C65.8758 103.315 65.8438 103.352 65.8011 103.384C65.7585 103.416 65.7158 103.432 65.6731 103.432ZM72.2465 113.096C71.7665 113.096 71.3505 113.037 70.9985 112.92C70.6572 112.792 70.3905 112.648 70.1985 112.488C70.0065 112.328 69.9105 112.184 69.9105 112.056C69.9105 112.003 69.9212 111.96 69.9425 111.928C69.9638 111.885 69.9905 111.853 70.0225 111.832C70.0652 111.8 70.1025 111.784 70.1345 111.784C70.2305 111.784 70.3425 111.848 70.4705 111.976C70.6092 112.093 70.8118 112.216 71.0785 112.344C71.3452 112.472 71.7292 112.536 72.2305 112.536C72.9025 112.536 73.3825 112.408 73.6705 112.152C73.9585 111.885 74.1025 111.571 74.1025 111.208C74.1025 110.792 74.0065 110.472 73.8145 110.248C73.6225 110.013 73.3718 109.837 73.0625 109.72C72.7532 109.592 72.4278 109.48 72.0865 109.384C71.7452 109.288 71.4198 109.176 71.1105 109.048C70.8012 108.909 70.5505 108.717 70.3585 108.472C70.1665 108.216 70.0705 107.869 70.0705 107.432C70.0705 107.112 70.1505 106.792 70.3105 106.472C70.4812 106.152 70.7372 105.885 71.0785 105.672C71.4305 105.459 71.8838 105.352 72.4385 105.352C72.7585 105.352 73.0678 105.389 73.3665 105.464C73.6652 105.528 73.9105 105.613 74.1025 105.72C74.2945 105.816 74.3905 105.917 74.3905 106.024C74.3905 106.056 74.3745 106.099 74.3425 106.152C74.3212 106.205 74.2892 106.253 74.2465 106.296C74.2145 106.328 74.1718 106.344 74.1185 106.344C74.0545 106.344 73.9532 106.307 73.8145 106.232C73.6758 106.157 73.4945 106.088 73.2705 106.024C73.0465 105.949 72.7745 105.912 72.4545 105.912C72.0065 105.912 71.6492 105.997 71.3825 106.168C71.1158 106.328 70.9238 106.525 70.8065 106.76C70.6892 106.984 70.6305 107.203 70.6305 107.416C70.6305 107.768 70.7265 108.04 70.9185 108.232C71.1105 108.424 71.3612 108.573 71.6705 108.68C71.9798 108.787 72.3052 108.888 72.6465 108.984C72.9878 109.08 73.3132 109.208 73.6225 109.368C73.9318 109.517 74.1825 109.736 74.3745 110.024C74.5665 110.301 74.6625 110.685 74.6625 111.176C74.6625 111.763 74.4492 112.232 74.0225 112.584C73.5958 112.925 73.0038 113.096 72.2465 113.096ZM87.2424 113C87.1677 113 87.0984 112.979 87.0344 112.936C86.981 112.883 86.9544 112.808 86.9544 112.712V101.88H84.1064C84.021 101.88 83.9517 101.853 83.8984 101.8C83.845 101.736 83.8184 101.667 83.8184 101.592C83.8184 101.517 83.845 101.453 83.8984 101.4C83.9517 101.336 84.021 101.304 84.1064 101.304H90.3624C90.4584 101.304 90.5277 101.331 90.5704 101.384C90.6237 101.437 90.6504 101.501 90.6504 101.576C90.6504 101.651 90.629 101.72 90.5864 101.784C90.5437 101.848 90.469 101.88 90.3624 101.88H87.5304V112.712C87.5304 112.808 87.4984 112.883 87.4344 112.936C87.381 112.979 87.317 113 87.2424 113ZM94.8602 113.096C94.2416 113.096 93.7136 112.925 93.2762 112.584C92.8496 112.232 92.6362 111.699 92.6362 110.984C92.6362 110.419 92.7909 109.987 93.1002 109.688C93.4202 109.379 93.8576 109.165 94.4122 109.048C94.9776 108.931 95.6282 108.872 96.3642 108.872H97.2602V108.424C97.2602 108.019 97.1909 107.624 97.0522 107.24C96.9136 106.856 96.6896 106.541 96.3802 106.296C96.0709 106.04 95.6602 105.912 95.1482 105.912C94.8176 105.912 94.5402 105.949 94.3162 106.024C94.0922 106.088 93.9109 106.157 93.7722 106.232C93.6442 106.307 93.5482 106.344 93.4842 106.344C93.3989 106.344 93.3296 106.307 93.2762 106.232C93.2229 106.147 93.1962 106.077 93.1962 106.024C93.1962 105.917 93.2922 105.816 93.4842 105.72C93.6869 105.613 93.9376 105.528 94.2362 105.464C94.5456 105.389 94.8602 105.352 95.1802 105.352C95.8416 105.352 96.3642 105.501 96.7482 105.8C97.1322 106.088 97.4042 106.467 97.5642 106.936C97.7349 107.395 97.8202 107.891 97.8202 108.424V112.712C97.8202 112.787 97.7936 112.856 97.7402 112.92C97.6976 112.973 97.6336 113 97.5482 113C97.4736 113 97.4042 112.973 97.3402 112.92C97.2869 112.856 97.2602 112.787 97.2602 112.712V111.88C96.9936 112.189 96.6576 112.472 96.2522 112.728C95.8576 112.973 95.3936 113.096 94.8602 113.096ZM94.8442 112.536C95.2496 112.536 95.6336 112.44 95.9962 112.248C96.3696 112.045 96.6736 111.805 96.9082 111.528C97.1429 111.251 97.2602 111 97.2602 110.776V109.432H96.3802C95.8362 109.432 95.3189 109.464 94.8282 109.528C94.3482 109.592 93.9536 109.736 93.6442 109.96C93.3456 110.173 93.1962 110.515 93.1962 110.984C93.1962 111.517 93.3562 111.912 93.6762 112.168C93.9962 112.413 94.3856 112.536 94.8442 112.536ZM105.242 113.096C104.751 113.096 104.309 112.979 103.914 112.744C103.53 112.499 103.247 112.211 103.066 111.88V112.712C103.066 112.787 103.039 112.856 102.986 112.92C102.933 112.973 102.863 113 102.778 113C102.703 113 102.639 112.973 102.586 112.92C102.533 112.856 102.506 112.787 102.506 112.712V100.984C102.506 100.899 102.533 100.835 102.586 100.792C102.639 100.739 102.703 100.712 102.778 100.712C102.863 100.712 102.933 100.739 102.986 100.792C103.039 100.835 103.066 100.899 103.066 100.984V106.568C103.247 106.259 103.514 105.981 103.866 105.736C104.229 105.48 104.677 105.352 105.21 105.352C105.733 105.352 106.213 105.485 106.65 105.752C107.087 106.008 107.434 106.355 107.69 106.792C107.957 107.219 108.09 107.699 108.09 108.232V110.184C108.09 110.685 107.957 111.16 107.69 111.608C107.434 112.056 107.087 112.419 106.65 112.696C106.223 112.963 105.754 113.096 105.242 113.096ZM105.274 112.536C105.679 112.536 106.053 112.424 106.394 112.2C106.735 111.976 107.007 111.683 107.21 111.32C107.423 110.957 107.53 110.579 107.53 110.184V108.232C107.53 107.837 107.423 107.464 107.21 107.112C107.007 106.76 106.735 106.472 106.394 106.248C106.053 106.024 105.674 105.912 105.258 105.912C104.895 105.912 104.543 106.008 104.202 106.2C103.871 106.381 103.599 106.643 103.386 106.984C103.173 107.325 103.066 107.741 103.066 108.232V110.776C103.066 110.957 103.162 111.187 103.354 111.464C103.546 111.741 103.807 111.992 104.138 112.216C104.479 112.429 104.858 112.536 105.274 112.536ZM112.95 113C112.876 113 112.812 112.973 112.758 112.92C112.705 112.856 112.678 112.787 112.678 112.712V100.984C112.678 100.899 112.705 100.835 112.758 100.792C112.812 100.739 112.876 100.712 112.95 100.712C113.036 100.712 113.105 100.739 113.158 100.792C113.212 100.835 113.238 100.899 113.238 100.984V112.712C113.238 112.787 113.212 112.856 113.158 112.92C113.105 112.973 113.036 113 112.95 113ZM121.085 113.096C120.456 113.096 119.896 112.973 119.405 112.728C118.925 112.483 118.547 112.147 118.269 111.72C117.992 111.283 117.853 110.771 117.853 110.184V108.184C117.853 107.672 117.981 107.203 118.237 106.776C118.504 106.339 118.851 105.992 119.277 105.736C119.715 105.48 120.189 105.352 120.701 105.352C121.203 105.352 121.667 105.48 122.093 105.736C122.531 105.981 122.877 106.323 123.133 106.76C123.4 107.187 123.533 107.677 123.533 108.232C123.533 108.616 123.469 108.893 123.341 109.064C123.213 109.235 123.048 109.341 122.845 109.384C122.653 109.416 122.44 109.432 122.205 109.432H118.413V110.184C118.413 110.909 118.669 111.485 119.181 111.912C119.693 112.328 120.339 112.536 121.117 112.536C121.565 112.536 121.907 112.483 122.141 112.376C122.376 112.259 122.552 112.147 122.669 112.04C122.797 111.933 122.909 111.88 123.005 111.88C123.059 111.88 123.107 111.896 123.149 111.928C123.192 111.96 123.224 111.997 123.245 112.04C123.277 112.083 123.293 112.125 123.293 112.168C123.293 112.264 123.203 112.387 123.021 112.536C122.851 112.685 122.6 112.819 122.269 112.936C121.939 113.043 121.544 113.096 121.085 113.096ZM118.413 108.872H122.013C122.408 108.872 122.664 108.835 122.781 108.76C122.909 108.685 122.973 108.525 122.973 108.28C122.973 107.896 122.877 107.523 122.685 107.16C122.504 106.797 122.243 106.499 121.901 106.264C121.56 106.029 121.16 105.912 120.701 105.912C120.275 105.912 119.885 106.019 119.533 106.232C119.192 106.445 118.92 106.723 118.717 107.064C118.515 107.405 118.413 107.779 118.413 108.184V108.872Z" fill="white"/>
</svg>
