<svg width="1760" height="352" viewBox="0 0 1760 352" fill="none" xmlns="http://www.w3.org/2000/svg">
<path d="M0 276.375V35.75H77.6698C96.4572 35.75 111.808 38.9583 123.722 45.375C135.636 51.5625 144.457 59.9271 150.185 70.4688C155.912 81.0104 158.776 92.9271 158.776 106.219C158.776 119.052 155.798 130.854 149.841 141.625C144.113 152.396 135.178 160.99 123.035 167.406C110.891 173.823 95.3116 177.031 76.2951 177.031H28.8684V276.375H0ZM127.159 276.375L74.2331 168.781H106.538L161.182 276.375H127.159ZM28.8684 154.344H75.6078C93.937 154.344 107.34 149.875 115.817 140.938C124.524 132 128.877 120.542 128.877 106.562C128.877 92.3542 124.638 81.125 116.161 72.875C107.913 64.3958 94.2806 60.1563 75.2641 60.1563H28.8684V154.344Z" fill="white"/>
<path d="M237.816 280.5C224.069 280.5 212.613 277.979 203.448 272.938C194.284 267.667 187.41 260.792 182.828 252.312C178.246 243.604 175.955 234.323 175.955 224.469C175.955 212.552 178.933 202.469 184.89 194.219C191.076 185.74 199.668 179.323 210.665 174.969C221.663 170.615 234.493 168.438 249.157 168.438H294.178C294.178 156.75 292.803 147.01 290.054 139.219C287.304 131.427 282.836 125.583 276.65 121.688C270.464 117.792 262.216 115.844 251.906 115.844C241.596 115.844 232.775 118.479 225.443 123.75C218.112 128.792 213.529 136.354 211.696 146.438H182.141C183.515 134.521 187.525 124.552 194.169 116.531C200.813 108.281 209.176 102.094 219.257 97.9687C229.567 93.6146 240.45 91.4375 251.906 91.4375C268.173 91.4375 281.576 94.4167 292.116 100.375C302.655 106.104 310.445 114.24 315.485 124.781C320.526 135.094 323.046 147.354 323.046 161.562V276.375H297.271L295.552 245.438C293.261 250.25 290.283 254.833 286.617 259.188C283.18 263.312 279.056 266.979 274.245 270.188C269.433 273.396 263.935 275.917 257.748 277.75C251.791 279.583 245.147 280.5 237.816 280.5ZM241.94 256.094C249.5 256.094 256.488 254.375 262.904 250.938C269.319 247.5 274.817 242.917 279.4 237.188C284.211 231.229 287.877 224.583 290.397 217.25C292.918 209.917 294.178 202.24 294.178 194.219V190.781H251.562C240.794 190.781 231.973 192.156 225.1 194.906C218.455 197.656 213.644 201.552 210.665 206.594C207.687 211.406 206.198 216.906 206.198 223.094C206.198 229.74 207.572 235.583 210.322 240.625C213.071 245.437 217.081 249.219 222.35 251.969C227.849 254.719 234.379 256.094 241.94 256.094Z" fill="white"/>
<path d="M368.8 352L409.697 257.125H399.731L332.027 95.5625H363.301L419.32 234.781L477.744 95.5625H507.643L398.7 352H368.8Z" fill="white"/>
<path d="M560.102 35.75L529.171 122.031H508.551L527.797 35.75H560.102Z" fill="white"/>
<path d="M628.146 280.5C611.879 280.5 598.361 278.094 587.593 273.281C577.054 268.24 569.035 261.365 563.536 252.656C558.037 243.719 554.715 233.406 553.569 221.719H583.125C584.042 227.906 586.104 233.635 589.311 238.906C592.748 243.948 597.674 248.073 604.089 251.281C610.504 254.49 618.638 256.094 628.49 256.094C636.28 256.094 642.924 254.948 648.423 252.656C653.921 250.135 658.045 246.698 660.795 242.344C663.773 237.99 665.263 232.948 665.263 227.219C665.263 219.656 663.544 213.813 660.108 209.688C656.9 205.333 652.089 202.125 645.673 200.062C639.487 197.771 631.697 196.052 622.304 194.906C612.223 193.531 603.287 191.583 595.497 189.062C587.707 186.542 581.063 183.219 575.564 179.094C570.295 174.969 566.285 169.813 563.536 163.625C560.786 157.438 559.412 150.104 559.412 141.625C559.412 131.771 562.047 123.063 567.316 115.5C572.586 107.938 580.032 102.094 589.655 97.9687C599.507 93.6146 611.077 91.4375 624.366 91.4375C643.84 91.4375 659.191 95.9062 670.418 104.844C681.873 113.781 688.632 126.5 690.694 143H662.17C661.024 134.521 657.129 127.875 650.485 123.062C643.84 118.25 635.02 115.844 624.022 115.844C612.337 115.844 603.516 118.021 597.559 122.375C591.602 126.729 588.624 132.458 588.624 139.562C588.624 144.833 589.884 149.646 592.404 154C595.154 158.125 599.736 161.677 606.151 164.656C612.566 167.406 621.158 169.469 631.926 170.844C645.444 172.448 656.9 175.083 666.294 178.75C675.687 182.187 682.79 187.573 687.601 194.906C692.642 202.24 695.048 212.208 694.818 224.812C694.818 236.729 691.954 246.812 686.227 255.062C680.728 263.312 672.938 269.615 662.857 273.969C653.005 278.323 641.435 280.5 628.146 280.5Z" fill="white"/>
<path d="M877.277 352C849.396 352 825.302 343.57 804.993 326.71C782.276 309.161 770.917 286.968 770.917 260.129C770.917 232.602 780.727 208 800.347 186.323C819.278 165.333 842.512 152.258 870.049 147.097C869.36 143.312 868.672 139.527 867.984 135.742C867.639 131.957 867.467 128.172 867.467 124.387C867.467 106.151 871.598 88.086 879.859 70.1936C888.808 50.5806 900.339 36.3011 914.452 27.3549C941.644 9.46238 973.312 0.516153 1009.45 0.516153C1035.27 0.516153 1065.04 5.5054 1098.78 15.4839C1103.59 16.8602 1113.06 20.129 1127.17 25.2903C1141.63 30.1075 1160.73 36.9893 1184.48 45.9355C1205.48 32.1721 1224.93 25.2903 1242.83 25.2903C1260.04 25.2903 1268.64 31.4839 1268.64 43.871C1268.64 56.6022 1257.46 62.9678 1235.08 62.9678C1222.69 62.9678 1207.37 59.871 1189.13 53.6774C1167.1 76.3871 1145.59 112.688 1124.59 162.581C1102.22 216.258 1073.65 258.237 1038.88 288.516C1026.84 299.183 1014.79 308.301 1002.74 315.871C991.038 323.441 979.335 329.634 967.632 334.452C955.929 338.925 943.193 342.882 929.425 346.323C915.657 350.108 900.683 352 884.506 352H877.277ZM885.022 344.258C916.345 344.258 947.496 331.871 978.475 307.097C991.211 297.118 1003.26 285.763 1014.62 273.032C1025.98 259.957 1036.65 245.505 1046.63 229.677C1051.45 221.763 1057.47 211.957 1064.7 200.258C1071.93 188.215 1080.36 174.452 1090 158.968C1098.6 145.892 1107.55 132.817 1116.85 119.742C1126.48 106.667 1136.47 93.5914 1146.79 80.5161C1151.61 74.6667 1156.6 69.3333 1161.77 64.5161C1167.27 59.3548 1172.95 54.5376 1178.8 50.0645C1109.62 27.3548 1057.47 16 1022.36 16C980.712 16 947.152 27.5269 921.68 50.5807C911.01 60.2151 902.06 72.6022 894.832 87.7419C888.292 102.194 885.022 116.989 885.022 132.129C885.022 134.538 885.022 136.774 885.022 138.839C885.022 140.903 885.194 142.968 885.538 145.032C887.259 144.688 888.808 144.516 890.185 144.516C891.562 144.516 892.939 144.516 894.316 144.516C931.146 144.516 953.864 159.656 962.469 189.935C977.614 183.398 990.694 174.108 1001.71 162.065C1013.41 148.645 1020.81 134.366 1023.91 119.226C1023.91 119.226 1023.74 119.054 1023.39 118.71C1023.39 118.366 1023.39 117.849 1023.39 117.161C1023.39 114.409 1024.25 113.032 1025.98 113.032C1027.35 113.032 1028.04 113.892 1028.04 115.613C1028.04 115.957 1028.04 116.473 1028.04 117.161C1028.04 117.849 1027.87 118.71 1027.52 119.742C1018.58 156.559 997.234 181.677 963.502 195.097C963.846 197.505 964.018 199.914 964.018 202.323C964.362 204.387 964.534 206.624 964.534 209.032C964.534 230.366 956.101 248.43 939.235 263.226C923.057 278.021 904.126 285.419 882.44 285.419C880.031 285.419 878.826 284.559 878.826 282.839C878.826 280.43 880.547 279.054 883.989 278.71C906.019 276.301 923.573 269.247 936.653 257.548C951.11 244.473 958.339 227.269 958.339 205.935C958.339 204.215 958.166 202.667 957.822 201.29C957.822 199.914 957.822 198.538 957.822 197.161C950.25 199.57 942.161 200.774 933.555 200.774C918.754 200.774 905.847 196.473 894.832 187.871C889.325 183.398 884.678 178.409 880.891 172.903C877.105 167.398 874.179 161.032 872.114 153.806C848.364 162.065 828.744 176.86 813.254 198.194C798.109 219.527 790.537 242.409 790.537 266.839C790.537 292.645 800.002 312.602 818.934 326.71C835.8 338.409 857.829 344.258 885.022 344.258ZM1235.08 58.8387C1254.01 58.8387 1263.48 53.8495 1263.48 43.871C1263.48 33.2043 1256.25 27.871 1241.79 27.871C1225.27 27.871 1209.27 35.0968 1193.78 49.5484C1211.33 55.7419 1225.1 58.8387 1235.08 58.8387ZM935.621 195.613C942.505 195.613 949.561 194.409 956.79 192C953.003 178.925 945.431 168.43 934.072 160.516C922.713 152.946 910.321 149.161 896.897 149.161C895.52 149.161 893.799 149.333 891.734 149.677C890.013 149.677 888.292 149.849 886.571 150.194C889.669 162.237 895.348 172.731 903.609 181.677C912.903 190.968 923.573 195.613 935.621 195.613Z" fill="white"/>
<path d="M1277 324.645C1259.1 324.645 1250.15 312.258 1250.15 287.484C1250.15 277.849 1251.7 266.839 1254.8 254.452C1230.7 300.903 1206.78 324.129 1183.03 324.129C1171.67 324.129 1163.06 318.452 1157.21 307.097C1152.39 298.495 1149.98 287.656 1149.98 274.581C1149.98 263.914 1151.53 252.731 1154.63 241.032C1160.48 220.731 1172.87 201.634 1191.81 183.742C1212.8 164.473 1232.77 154.839 1251.7 154.839C1268.91 154.839 1277.51 165.161 1277.51 185.806C1277.51 194.753 1275.62 205.247 1271.83 217.29L1303.33 155.355H1304.88C1305.91 157.075 1308.15 157.935 1311.59 157.935C1318.47 157.935 1327.25 153.806 1337.92 145.548L1338.95 146.581L1295.07 232.258C1277.51 266.323 1268.74 292.129 1268.74 309.677C1268.74 316.559 1271.83 320 1278.03 320C1282.16 320 1287.15 318.452 1293 315.355C1298.85 312.258 1305.05 307.097 1311.59 299.871C1319.85 290.237 1326.91 281.118 1332.76 272.516C1338.95 263.57 1346.01 251.527 1353.93 236.387C1354.96 234.667 1355.99 233.806 1357.03 233.806C1359.09 233.806 1359.09 235.527 1357.03 238.968C1350.83 250.667 1344.12 262.366 1336.89 274.065C1330 285.419 1321.57 296.086 1311.59 306.065C1299.2 318.452 1287.67 324.645 1277 324.645ZM1185.09 320.516C1204.37 320.516 1229.15 293.333 1259.44 238.968C1269.08 221.763 1273.9 204.387 1273.9 186.839C1273.9 168.258 1267.88 158.968 1255.83 158.968C1242.75 158.968 1227.95 169.806 1211.42 191.484C1204.88 200.43 1199.21 209.204 1194.39 217.806C1189.91 226.409 1186.3 234.667 1183.54 242.581C1176.32 263.226 1172.7 281.806 1172.7 298.323C1172.7 313.118 1176.83 320.516 1185.09 320.516Z" fill="white"/>
<path d="M1384.35 326.71C1359.23 326.71 1346.66 309.505 1346.66 275.097C1346.66 269.935 1347.01 264.774 1347.7 259.613C1348.38 254.452 1349.42 249.29 1350.79 244.129C1359.4 211.441 1370.76 180.817 1384.87 152.258C1390.38 140.903 1396.23 129.892 1402.42 119.226C1408.96 108.559 1415.68 98.4086 1422.56 88.7742C1429.79 78.7957 1437.36 69.1613 1445.28 59.871C1453.2 50.5807 1461.46 41.9785 1470.06 34.0645C1494.5 11.3548 1514.81 0 1530.99 0C1545.44 0 1552.67 6.88172 1552.67 20.6452C1552.67 31.6559 1547.68 45.7635 1537.7 62.9678C1529.44 77.4194 1520.49 89.4624 1510.85 99.0968C1481.59 129.376 1444.76 157.763 1400.36 184.258C1378.33 236.559 1367.32 274.065 1367.32 296.774C1367.32 305.72 1368.86 312.258 1371.96 316.387C1375.4 320.172 1380.22 322.065 1386.42 322.065C1394.68 322.065 1402.25 319.14 1409.14 313.29C1416.37 307.441 1422.91 300.215 1428.76 291.613C1434.61 283.011 1439.77 274.237 1444.25 265.29C1448.72 256.344 1452.16 248.602 1454.57 242.065C1453.88 240.344 1453.02 237.075 1451.99 232.258C1451.3 227.097 1450.96 221.935 1450.96 216.774C1450.96 210.925 1451.65 205.935 1453.02 201.806C1454.4 197.333 1456.81 195.097 1460.25 195.097C1465.76 195.097 1468.51 199.226 1468.51 207.484C1468.51 211.957 1467.82 217.118 1466.45 222.968C1465.07 228.817 1462.83 235.011 1459.74 241.548C1460.42 249.462 1461.97 256.172 1464.38 261.677C1466.79 267.183 1470.92 269.935 1476.77 269.935C1482.63 269.935 1488.13 267.011 1493.3 261.161C1498.46 254.968 1503.62 246.71 1508.79 236.387C1508.79 236.043 1509.13 235.871 1509.82 235.871C1510.51 235.871 1511.02 236.387 1511.37 237.419C1512.06 238.108 1512.06 238.968 1511.37 240C1506.55 250.667 1501.38 258.925 1495.88 264.774C1490.37 270.624 1483.66 273.548 1475.74 273.548C1464.38 273.548 1457.84 265.118 1456.12 248.258C1436.16 300.559 1412.23 326.71 1384.35 326.71ZM1403.97 177.548C1448.38 147.613 1482.45 120.774 1506.2 97.0323C1533.4 69.1613 1546.99 43.3548 1546.99 19.6129C1546.99 8.60217 1541.66 3.0968 1530.99 3.0968C1512.4 3.0968 1487.79 27.3549 1457.15 75.871C1447.52 91.3548 1438.22 107.699 1429.27 124.903C1420.67 141.763 1412.23 159.312 1403.97 177.548Z" fill="white"/>
<path d="M1542.26 327.226C1514.38 327.226 1500.44 308.817 1500.44 272C1500.44 249.978 1505.25 224.344 1514.89 195.097C1519.37 181.677 1524.19 168.774 1529.35 156.387C1534.51 144 1540.02 132.473 1545.87 121.806C1553.1 108.731 1560.67 96.3441 1568.59 84.6452C1576.51 72.6022 1584.94 61.2473 1593.89 50.5807C1619.7 18.5807 1641.73 2.58064 1659.98 2.58064C1667.55 2.58064 1671.34 6.19355 1671.34 13.4194C1671.34 23.0538 1667.38 37.8495 1659.46 57.8065C1632.96 123.527 1589.93 183.398 1530.38 237.419C1524.53 259.097 1521.6 276.473 1521.6 289.548C1521.6 311.914 1528.66 323.097 1542.77 323.097C1547.59 323.097 1552.24 322.237 1556.71 320.516C1561.19 318.452 1565.15 316.215 1568.59 313.806C1577.88 306.581 1585.8 298.151 1592.34 288.516C1598.88 278.882 1604.56 269.247 1609.38 259.613C1614.2 249.978 1618.5 241.892 1622.29 235.355C1623.32 233.634 1624.35 233.118 1625.38 233.806C1626.42 234.151 1626.59 235.183 1625.9 236.903C1619.02 251.355 1611.44 266.151 1603.18 281.29C1594.92 296.43 1584.42 308.473 1571.69 317.419C1562.39 323.957 1552.58 327.226 1542.26 327.226ZM1531.93 232.258C1538.81 226.409 1546.04 219.183 1553.62 210.581C1561.19 201.978 1569.28 192.172 1577.88 181.161C1586.49 170.151 1595.27 157.935 1604.21 144.516C1613.16 131.097 1622.11 116.645 1631.06 101.161C1655.16 60.2151 1667.2 31.6559 1667.2 15.4839C1667.2 9.63442 1665.31 6.70968 1661.53 6.70968C1648.79 6.70968 1626.07 34.0645 1593.37 88.7742C1584.77 104.258 1577.02 119.226 1570.14 133.677C1561.88 151.914 1554.48 169.29 1547.94 185.806C1541.74 201.978 1536.41 217.462 1531.93 232.258Z" fill="white"/>
<path d="M1656.22 328.258C1639.35 328.258 1627.65 323.613 1621.11 314.323C1614.57 304.688 1611.3 291.269 1611.3 274.065C1611.3 249.29 1621.63 223.484 1642.28 196.645C1664.31 168.43 1687.2 154.323 1710.95 154.323C1728.5 154.323 1737.28 160.344 1737.28 172.387C1737.28 187.183 1729.19 202.667 1713.02 218.839C1689.95 242.237 1665.69 253.936 1640.22 253.936C1636.08 264.602 1634.02 275.269 1634.02 285.935C1634.02 297.634 1636.26 306.753 1640.73 313.29C1645.21 319.828 1651.75 323.097 1660.35 323.097C1669.3 323.097 1678.59 320.688 1688.23 315.871C1697.87 310.71 1706.13 304.688 1713.02 297.806C1718.87 291.957 1725.41 284.043 1732.64 274.065C1740.21 263.742 1747.78 251.183 1755.35 236.387C1756.39 234.667 1757.42 233.806 1758.45 233.806C1760.52 233.806 1760.52 235.527 1758.45 238.968C1752.6 250.667 1746.23 261.849 1739.35 272.516C1732.81 283.183 1724.03 293.505 1713.02 303.484C1706.48 310.021 1698.21 315.871 1688.23 321.032C1678.25 325.849 1667.58 328.258 1656.22 328.258ZM1640.73 250.323C1659.66 250.323 1680.83 240.172 1704.24 219.871V219.355C1710.78 213.849 1716.97 206.28 1722.83 196.645C1729.71 185.979 1733.15 176.86 1733.15 169.29C1733.15 163.785 1729.02 161.032 1720.76 161.032C1707.68 161.032 1691.85 172.731 1673.26 196.129C1664.65 206.452 1657.77 216.086 1652.61 225.032C1647.44 233.978 1643.49 242.409 1640.73 250.323Z" fill="white"/>
</svg>
